# xmcd
#
# Track frame offsets:
#	150
#	9598
#	19735
#	33693
#	45750
#	56076
#	67236
#	78067
#	90028
#	100636
#
# Disc length: 1504 seconds
#
# Revision: 1
# Processed by: cddbd v1.5.2PL0 Copyright (c) Steve Scherf et al.
# Submitted via: audiograbber 1.83.01
#
DISCID=6905de0a
DTITLE=George Jones - From The Heart
DYEAR=1962
DGENRE=Country
TTITLE0=The Race Is On
TTITLE1=She Once Lived Here
TTITLE2=Open Pit Mine
TTITLE3=Sometimes You Just Can't Win
TTITLE4=Worried Mind
TTITLE5=A Good Old Fashioned Cry
TTITLE6=A House Without Love
TTITLE7=A Girl I Used To Know
TTITLE8=Ain't It Funny What A Fool Will Do
TTITLE9=San Antonio Rose
EXTD=
EXTT0=
EXTT1=
EXTT2=
EXTT3=
EXTT4=
EXTT5=
EXTT6=
EXTT7=
EXTT8=
EXTT9=
PLAYORDER=
